<svg xmlns="http://www.w3.org/2000/svg" width="64" height="64" fill="none"><path fill="#000" d="m26.376 52.745 18.376-22.11H32.88l2.352-18.716-16.675 24.097h10.187l-2.368 16.729ZM23.65 40.447h-9.247c-.911 0-1.584-.404-2.017-1.211-.434-.807-.375-1.591.178-2.353L35.703 3.489c.377-.521.848-.873 1.413-1.056a2.388 2.388 0 0 1 1.696.074c.565.223 1.014.6 1.346 1.134a2.43 2.43 0 0 1 .366 1.692l-2.632 20.872h11.462c.977 0 1.664.43 2.059 1.292.396.862.295 1.669-.303 2.42L25.756 60.365a2.708 2.708 0 0 1-1.462.92 2.414 2.414 0 0 1-1.663-.171 2.759 2.759 0 0 1-1.23-1.131c-.3-.51-.406-1.07-.317-1.678l2.566-17.858Z"/></svg>