<svg xmlns="http://www.w3.org/2000/svg" width="64" height="64" fill="none"><path fill="#CFA947" d="M9.908 31.777c0 4.465 1.2 8.511 3.6 12.14 2.4 3.63 5.623 6.311 9.666 8.047.576.286.984.719 1.223 1.3.24.58.21 1.14-.09 1.683-.387.596-.915.978-1.583 1.144-.668.166-1.329.09-1.983-.23-4.74-2.155-8.488-5.4-11.243-9.738-2.755-4.337-4.132-9.12-4.132-14.346 0-1.348.1-2.701.301-4.061.2-1.36.53-2.69.987-3.994l-2.507 1.437c-.51.288-1.029.34-1.556.154-.527-.185-.935-.539-1.223-1.06a2.3 2.3 0 0 1-.24-1.732c.15-.602.5-1.058 1.054-1.368l8.082-4.682a2.33 2.33 0 0 1 1.741-.216c.607.155 1.06.503 1.36 1.045l4.65 8.016c.309.552.386 1.133.232 1.74a2.062 2.062 0 0 1-1.061 1.36c-.553.31-1.157.395-1.812.256-.656-.139-1.085-.5-1.288-1.085l-2.452-4.165a23.127 23.127 0 0 0-1.282 4.093 20.4 20.4 0 0 0-.444 4.262ZM32 9.7c-2.363 0-4.64.373-6.83 1.12a20.937 20.937 0 0 0-6.077 3.279c-.574.366-1.17.514-1.79.444-.62-.07-1.078-.381-1.377-.934-.343-.597-.434-1.242-.274-1.933.16-.691.521-1.22 1.084-1.586a26.514 26.514 0 0 1 7.223-3.661A25.693 25.693 0 0 1 32 5.158c3.771 0 7.353.76 10.745 2.279a26.292 26.292 0 0 1 8.857 6.453v-2.891c0-.61.22-1.093.662-1.45.442-.356.978-.534 1.609-.534.652 0 1.194.215 1.625.646.43.43.646.972.646 1.624v9.334c0 .652-.216 1.194-.646 1.624-.431.431-.973.647-1.625.647H44.54c-.653 0-1.194-.216-1.625-.647-.431-.43-.647-.972-.647-1.624 0-.652.216-1.194.647-1.625.43-.43.972-.646 1.625-.646h4.869a21.7 21.7 0 0 0-7.683-6.365A21.502 21.502 0 0 0 32 9.7Zm16.593 36.642c2.086-2.342 3.575-4.994 4.468-7.954.893-2.96 1.116-5.98.67-9.06a2.442 2.442 0 0 1 .526-1.7c.386-.492.889-.738 1.507-.738.697 0 1.291.27 1.784.811.492.542.766 1.177.824 1.908.302 3.43-.017 6.757-.958 9.982-.94 3.224-2.486 6.172-4.636 8.845a26.364 26.364 0 0 1-6.632 5.935 25.877 25.877 0 0 1-8.217 3.348l2.406 1.403c.51.288.805.725.884 1.311a2.62 2.62 0 0 1-.329 1.677c-.309.553-.756.893-1.342 1.02-.586.127-1.155.04-1.707-.257l-8.117-4.667a2.088 2.088 0 0 1-1.054-1.375 2.363 2.363 0 0 1 .224-1.741l4.667-8c.299-.542.754-.89 1.367-1.045a2.353 2.353 0 0 1 1.749.216c.542.309.88.754 1.012 1.334.132.58.049 1.141-.25 1.683l-2.42 4.317a20.942 20.942 0 0 0 7.455-2.355 21.542 21.542 0 0 0 6.119-4.898Z"/></svg>
