<svg xmlns="http://www.w3.org/2000/svg" width="64" height="64" fill="none"><path fill="#000" d="M31.64 54.667c.218 0 .472-.053.761-.159.289-.106.527-.253.716-.441l22.403-22.47a6.104 6.104 0 0 0 1.364-2.059 6.35 6.35 0 0 0 .465-2.385 6.65 6.65 0 0 0-.465-2.417 6.16 6.16 0 0 0-1.364-2.116L43.966 11.067a5.764 5.764 0 0 0-2.04-1.3 6.568 6.568 0 0 0-2.318-.434c-.772 0-1.532.142-2.28.426a5.64 5.64 0 0 0-1.972 1.26l-1.088 1.104 5.304 5.355c.61.665 1.15 1.432 1.621 2.303.471.87.707 1.825.707 2.868 0 1.773-.694 3.341-2.08 4.704-1.386 1.364-2.973 2.046-4.759 2.046-1.171 0-2.145-.178-2.92-.532a7.416 7.416 0 0 1-2.161-1.529l-4.836-4.835-11.779 11.78a1.815 1.815 0 0 0-.467.691 2.273 2.273 0 0 0-.133.775c0 .578.188 1.053.563 1.426.375.372.85.558 1.424.558.264 0 .521-.066.77-.2.248-.133.463-.289.643-.466l7.636-7.635c.403-.404.871-.606 1.405-.606.533 0 1 .203 1.4.608.4.405.6.873.6 1.402 0 .53-.2.993-.6 1.39l-7.573 7.572c-.223.224-.38.472-.468.746a2.603 2.603 0 0 0-.133.805c0 .538.194 1.003.584 1.396.389.392.85.588 1.384.588.266 0 .525-.056.776-.168.251-.111.471-.256.66-.435l7.599-7.615c.404-.404.872-.604 1.405-.598.534.005 1 .202 1.4.592.4.4.6.866.6 1.4 0 .533-.2 1-.6 1.4l-7.588 7.572a2.22 2.22 0 0 0-.427.702 2.224 2.224 0 0 0-.175.833c0 .533.2 1 .6 1.4.4.4.867.6 1.4.6a1.9 1.9 0 0 0 .739-.141c.226-.095.447-.248.661-.459l7.641-7.657c.397-.4.863-.597 1.398-.592a1.977 1.977 0 0 1 1.402.592c.4.411.6.881.6 1.41 0 .53-.2.993-.6 1.39l-7.64 7.641a2.03 2.03 0 0 0-.46.744c-.094.274-.14.52-.14.739 0 .626.177 1.113.533 1.462.355.348.84.522 1.456.522Zm.01 4.366c-1.52 0-2.88-.547-4.084-1.641-1.204-1.094-1.938-2.457-2.202-4.09-1.49-.232-2.75-.865-3.776-1.897-1.028-1.033-1.658-2.29-1.891-3.769-1.469-.243-2.706-.885-3.711-1.924a6.867 6.867 0 0 1-1.873-3.71c-1.655-.265-3.024-.982-4.107-2.153-1.082-1.17-1.624-2.559-1.624-4.167 0-.798.155-1.595.463-2.393a6.118 6.118 0 0 1 1.366-2.112l11.75-11.751c.87-.862 1.933-1.293 3.189-1.293s2.32.431 3.193 1.293l4.374 4.374c.355.355.746.636 1.172.841.426.206.846.308 1.26.308.568 0 1.105-.254 1.61-.763.505-.509.758-1.05.758-1.623 0-.265-.083-.57-.25-.914-.166-.344-.421-.694-.767-1.05l-9.565-9.566a5.45 5.45 0 0 0-2.024-1.274 6.897 6.897 0 0 0-2.365-.426 6.44 6.44 0 0 0-2.321.426 5.396 5.396 0 0 0-1.944 1.272l-9.977 9.946c-.836.846-1.348 1.879-1.538 3.098a6.28 6.28 0 0 0 .418 3.482 2.02 2.02 0 0 1-.104 1.611c-.26.532-.663.904-1.21 1.116-.547.212-1.101.18-1.661-.095-.56-.276-.943-.69-1.15-1.242-.707-1.969-.9-3.926-.578-5.872.322-1.945 1.244-3.681 2.768-5.207l9.891-9.904c1-1 2.159-1.737 3.479-2.215a11.668 11.668 0 0 1 3.993-.716c1.374 0 2.702.239 3.984.716a9.594 9.594 0 0 1 3.414 2.183l1.104 1.088 1.088-1.088a9.617 9.617 0 0 1 3.459-2.175 11.576 11.576 0 0 1 4.01-.724c1.352 0 2.674.247 3.965.74a9.722 9.722 0 0 1 3.436 2.238l11.599 11.583a9.773 9.773 0 0 1 2.271 3.514 11.37 11.37 0 0 1 .758 4.045c0 1.36-.26 2.703-.782 4.03a10.304 10.304 0 0 1-2.295 3.52l-22.45 22.435a6.481 6.481 0 0 1-2.08 1.405c-.775.327-1.59.49-2.443.49Z"/></svg>